<svg width="177" height="123" viewBox="0 0 177 123" fill="none" xmlns="http://www.w3.org/2000/svg">
    <path d="M66 122.139V99.8672H86.2356V122.139H80.254V102.826H71.9816V122.139H66Z" fill="#675E57"/>
    <path d="M124.257 122.617C123.069 122.617 121.987 122.363 121.011 121.853C120.057 121.344 119.304 120.613 118.752 119.658C118.201 118.704 117.925 117.59 117.925 116.317V115.236H120.979V116.381C120.979 117.335 121.223 118.12 121.711 118.735C122.199 119.329 122.878 119.626 123.748 119.626C124.511 119.626 125.094 119.414 125.497 118.99C125.922 118.544 126.134 117.993 126.134 117.335C126.134 116.614 125.911 115.893 125.466 115.172L115.666 99.8679H122.666L128.87 110.081C129.082 110.421 129.273 110.813 129.443 111.258C129.634 111.704 129.772 112.117 129.856 112.499L133.643 99.8679H136.824L131.415 116.635C130.758 118.629 129.825 120.125 128.616 121.122C127.428 122.119 125.975 122.617 124.257 122.617Z" fill="#675E57"/>
    <path d="M146.988 122.617C145.185 122.617 143.552 122.288 142.088 121.631C140.624 120.973 139.426 120.008 138.493 118.735C137.581 117.463 137.05 115.935 136.902 114.154H139.861C140.073 115.808 140.709 117.113 141.77 118.067C142.852 119.022 144.199 119.499 145.811 119.499C147.253 119.499 148.388 119.128 149.215 118.385C150.042 117.643 150.456 116.678 150.456 115.49C150.456 114.79 150.286 114.186 149.947 113.676C149.608 113.146 149.141 112.754 148.547 112.499C147.974 112.245 147.348 112.117 146.67 112.117H144.443V109.827H146.67C147.391 109.827 148.006 109.678 148.515 109.381C149.024 109.063 149.406 108.649 149.661 108.14C149.915 107.631 150.042 107.048 150.042 106.39C150.042 105.584 149.862 104.895 149.501 104.322C149.162 103.75 148.664 103.304 148.006 102.986C147.37 102.668 146.617 102.509 145.747 102.509C144.305 102.509 143.085 102.944 142.088 103.813C141.112 104.683 140.518 105.871 140.306 107.377H137.316C137.549 105.659 138.111 104.206 139.002 103.018C139.893 101.809 141.038 100.907 142.438 100.313C143.838 99.6982 145.408 99.3906 147.147 99.3906C148.78 99.3906 150.254 99.6558 151.57 100.186C152.906 100.716 153.956 101.48 154.719 102.477C155.483 103.453 155.865 104.566 155.865 105.818C155.865 107.006 155.525 108.034 154.847 108.904C154.168 109.774 153.235 110.41 152.047 110.813C153.362 111.216 154.433 111.863 155.26 112.754C156.109 113.623 156.533 114.642 156.533 115.808C156.533 117.187 156.119 118.396 155.292 119.435C154.465 120.454 153.33 121.238 151.888 121.79C150.445 122.341 148.812 122.617 146.988 122.617Z" fill="#675E57"/>
    <path d="M0 99.8672V122.139H5.9816V112.467V99.8672H0Z" fill="#675E57"/>
    <path d="M14.254 99.8672V112.467V122.139H20.2356V99.8672H14.254Z" fill="#675E57"/>
    <path d="M97.7819 122.451C95.5014 122.451 93.701 121.926 92.3807 120.876C91.0904 119.796 90.4453 118.325 90.4453 116.465C90.4453 114.995 90.8804 113.779 91.7506 112.819C92.6208 111.829 93.806 111.094 95.3063 110.614C96.8367 110.104 98.637 109.774 100.707 109.624C102.478 109.474 103.783 109.173 104.623 108.723C105.493 108.243 105.929 107.553 105.929 106.653C105.929 105.543 105.553 104.688 104.803 104.087C104.083 103.487 103.138 103.187 101.968 103.187C100.617 103.187 99.4772 103.592 98.547 104.402C97.6168 105.213 97.0317 106.293 96.7916 107.643H92.2007C92.3807 105.873 92.9508 104.342 93.911 103.052C94.9012 101.732 95.8992 100.727 97.4295 100.037C98.9899 99.3464 99.5833 99.1953 101.504 99.1953C103.454 99.1953 104.743 99.2864 106.244 100.037C107.774 100.787 108.959 101.867 109.799 103.277C110.64 104.688 111.06 106.338 111.06 108.228V117.5H113.445V121.866L106.244 121.956V117.185C105.493 118.835 104.383 120.126 102.913 121.056C101.473 121.986 99.7623 122.451 97.7819 122.451ZM99.3696 118.402C100.3 118.402 102.388 117.98 103.228 117.41C104.068 116.84 104.743 116.075 105.253 115.115C105.764 114.154 106.019 113.089 106.019 111.919V110.119C105.749 110.389 105.313 110.644 104.713 110.884C104.143 111.094 103.498 111.259 102.778 111.379C102.718 111.379 102.658 111.394 102.598 111.424C102.568 111.424 102.523 111.424 102.463 111.424C100.873 111.694 98.1497 112.189 97.4295 112.819C96.7094 113.419 96.3493 114.275 96.3493 115.385C96.3493 116.345 96.5894 117.08 97.0695 117.59C97.5496 118.07 98.5594 118.402 99.3696 118.402Z" fill="#675E57"/>
    <path d="M32.1686 122.256C29.8881 122.256 28.0877 121.731 26.7674 120.681C25.4772 119.6 24.832 118.13 24.832 116.27C24.832 114.799 25.2671 113.584 26.1373 112.624C27.0075 111.634 28.1927 110.899 29.6931 110.418C31.2234 109.908 33.0238 109.578 35.0942 109.428C36.8646 109.278 38.1698 108.978 39.01 108.528C39.8802 108.048 40.3153 107.358 40.3153 106.458C40.3153 105.347 39.9402 104.492 39.1901 103.892C38.4699 103.292 37.5247 102.992 36.3545 102.992C35.0042 102.992 33.8639 103.397 32.9337 104.207C32.0035 105.017 31.4184 106.098 31.1784 107.448H26.5874C26.7674 105.677 27.3376 104.147 28.2978 102.857C29.288 101.537 30.2859 100.531 31.8163 99.8412C33.3766 99.1511 33.97 99 35.8904 99C37.8408 99 39.13 99.0911 40.6304 99.8412C42.1607 100.591 43.3459 101.672 44.1861 103.082C45.0263 104.492 45.4464 106.143 45.4464 108.033V117.305H47.8319V121.671L40.6304 121.761V116.99C39.8802 118.64 38.77 119.93 37.2997 120.861C35.8593 121.791 34.149 122.256 32.1686 122.256ZM33.7563 118.207C34.6865 118.207 36.7745 117.785 37.6147 117.215C38.4549 116.645 39.13 115.88 39.6401 114.919C40.1503 113.959 40.4053 112.894 40.4053 111.724V109.923C40.1352 110.193 39.7002 110.448 39.1 110.688C38.5299 110.899 37.8848 111.064 37.1646 111.184C37.1046 111.184 37.0446 111.199 36.9846 111.229C36.9546 111.229 36.9096 111.229 36.8496 111.229C35.2592 111.499 32.5364 111.994 31.8163 112.624C31.0961 113.224 30.736 114.079 30.736 115.189C30.736 116.15 30.9761 116.885 31.4562 117.395C31.9363 117.875 32.9462 118.207 33.7563 118.207Z" fill="#675E57"/>
    <path d="M160.346 122.139V99.8672H175.3V102.54H166.264V109.73H172.277V112.244H166.264V119.435H176.381V122.139H160.346Z" fill="#675E57"/>
    <circle cx="88" cy="36" r="36" fill="url(#paint0_linear_533_825)"/>
    <circle cx="88" cy="36" r="19.5" stroke="url(#paint1_linear_533_825)" stroke-width="3"/>
    <defs>
        <linearGradient id="paint0_linear_533_825" x1="88" y1="0" x2="88" y2="72" gradientUnits="userSpaceOnUse">
            <stop stop-color="#FFD9C1"/>
            <stop offset="1" stop-color="#FFECE0"/>
        </linearGradient>
        <linearGradient id="paint1_linear_533_825" x1="88" y1="15" x2="88" y2="57" gradientUnits="userSpaceOnUse">
            <stop stop-color="#8F7C6D"/>
            <stop offset="1" stop-color="#5C422E"/>
        </linearGradient>
    </defs>
</svg>
