<svg width="249" height="59" viewBox="0 0 249 59" fill="none" xmlns="http://www.w3.org/2000/svg">
    <path d="M138.107 40.6547V18.3828H158.343V40.6547H152.361V21.3418H144.089V40.6547H138.107Z"
        fill="#83756B" />
    <path
        d="M196.364 41.1327C195.176 41.1327 194.094 40.8781 193.118 40.3691C192.164 39.86 191.411 39.1282 190.859 38.1737C190.308 37.2192 190.032 36.1056 190.032 34.8329V33.7511H193.086V34.8965C193.086 35.8511 193.33 36.6359 193.818 37.251C194.306 37.8449 194.985 38.1419 195.854 38.1419C196.618 38.1419 197.201 37.9298 197.604 37.5055C198.029 37.0601 198.241 36.5086 198.241 35.8511C198.241 35.1299 198.018 34.4087 197.573 33.6875L187.773 18.3835H194.773L200.977 28.5968C201.189 28.9362 201.38 29.3286 201.55 29.774C201.741 30.2194 201.878 30.6331 201.963 31.0149L205.75 18.3835H208.931L203.522 35.1511C202.865 37.1449 201.932 38.6404 200.722 39.6373C199.535 40.6342 198.082 41.1327 196.364 41.1327Z"
        fill="#83756B" />
    <path
        d="M219.095 41.1327C217.292 41.1327 215.659 40.8039 214.195 40.1464C212.731 39.4888 211.533 38.5237 210.6 37.251C209.688 35.9783 209.157 34.4511 209.009 32.6694H211.968C212.18 34.3238 212.816 35.6283 213.877 36.5828C214.959 37.5374 216.306 38.0146 217.918 38.0146C219.36 38.0146 220.495 37.6434 221.322 36.901C222.149 36.1586 222.563 35.1935 222.563 34.0057C222.563 33.3057 222.393 32.7012 222.054 32.1921C221.714 31.6618 221.248 31.2694 220.654 31.0149C220.081 30.7603 219.455 30.6331 218.777 30.6331H216.549V28.3422H218.777C219.498 28.3422 220.113 28.1938 220.622 27.8968C221.131 27.5786 221.513 27.165 221.767 26.6559C222.022 26.1469 222.149 25.5635 222.149 24.906C222.149 24.1 221.969 23.4106 221.608 22.8379C221.269 22.2652 220.771 21.8197 220.113 21.5016C219.477 21.1834 218.724 21.0243 217.854 21.0243C216.412 21.0243 215.192 21.4592 214.195 22.3288C213.219 23.1985 212.625 24.3863 212.413 25.8923H209.422C209.656 24.1742 210.218 22.7212 211.109 21.5334C212 20.3243 213.145 19.4229 214.545 18.8289C215.945 18.2138 217.515 17.9062 219.254 17.9062C220.887 17.9062 222.361 18.1714 223.676 18.7017C225.013 19.232 226.063 19.9956 226.826 20.9925C227.59 21.9682 227.972 23.0818 227.972 24.3333C227.972 25.5211 227.632 26.5499 226.954 27.4195C226.275 28.2892 225.342 28.9255 224.154 29.3286C225.469 29.7316 226.54 30.3785 227.367 31.2694C228.216 32.1391 228.64 33.1572 228.64 34.3238C228.64 35.7026 228.226 36.9116 227.399 37.951C226.572 38.9691 225.437 39.7539 223.995 40.3054C222.552 40.8569 220.919 41.1327 219.095 41.1327Z"
        fill="#83756B" />
    <path d="M0.106934 18.3828V40.6547H6.08854V30.9824V18.3828H0.106934Z" fill="#83756B" />
    <path d="M14.361 18.3828V30.9824V40.6547H20.3426V18.3828H14.361Z" fill="#83756B" />
    <path
        d="M169.889 40.9669C167.608 40.9669 165.808 40.4418 164.488 39.3915C163.197 38.3113 162.552 36.841 162.552 34.9806C162.552 33.5103 162.987 32.295 163.858 31.3348C164.728 30.3446 165.913 29.6095 167.413 29.1294C168.944 28.6193 170.744 28.2892 172.814 28.1392C174.585 27.9891 175.89 27.6891 176.73 27.239C177.6 26.7589 178.036 26.0687 178.036 25.1685C178.036 24.0583 177.66 23.2031 176.91 22.603C176.19 22.0029 175.245 21.7028 174.075 21.7028C172.724 21.7028 171.584 22.1079 170.654 22.9181C169.724 23.7282 169.139 24.8085 168.899 26.1587H164.308C164.488 24.3884 165.058 22.8581 166.018 21.5678C167.008 20.2475 168.006 19.2423 169.536 18.5522C171.097 17.862 171.69 17.7109 173.611 17.7109C175.561 17.7109 176.85 17.802 178.351 18.5522C179.881 19.3023 181.066 20.3825 181.906 21.7928C182.746 23.2031 183.167 24.8535 183.167 26.7439V36.0158H185.552V40.3817L178.351 40.4718V35.7008C177.6 37.3511 176.49 38.6414 175.02 39.5716C173.58 40.5018 171.869 40.9669 169.889 40.9669ZM171.477 36.9176C172.407 36.9176 174.495 36.4959 175.335 35.9258C176.175 35.3557 176.85 34.5905 177.36 33.6303C177.87 32.6701 178.126 31.6049 178.126 30.4346V28.6343C177.855 28.9043 177.42 29.1594 176.82 29.3994C176.25 29.6095 175.605 29.7745 174.885 29.8945C174.825 29.8945 174.765 29.9095 174.705 29.9395C174.675 29.9395 174.63 29.9395 174.57 29.9395C172.979 30.2096 170.257 30.7047 169.536 31.3348C168.816 31.935 168.456 32.7901 168.456 33.9004C168.456 34.8606 168.696 35.5957 169.176 36.1058C169.656 36.5859 170.666 36.9176 171.477 36.9176Z"
        fill="#83756B" />
    <path
        d="M32.276 40.7735C29.9955 40.7735 28.1951 40.2484 26.8749 39.1982C25.5846 38.1179 24.9395 36.6476 24.9395 34.7872C24.9395 33.3169 25.3745 32.1017 26.2447 31.1415C27.1149 30.1513 28.3002 29.4161 29.8005 28.936C31.3308 28.4259 33.1312 28.0958 35.2016 27.9458C36.972 27.7958 38.2773 27.4957 39.1174 27.0456C39.9876 26.5655 40.4227 25.8754 40.4227 24.9752C40.4227 23.8649 40.0476 23.0098 39.2975 22.4096C38.5773 21.8095 37.6321 21.5095 36.4619 21.5095C35.1116 21.5095 33.9714 21.9145 33.0412 22.7247C32.111 23.5349 31.5258 24.6151 31.2858 25.9654H26.6948C26.8749 24.195 27.445 22.6647 28.4052 21.3744C29.3954 20.0541 30.3934 19.0489 31.9237 18.3588C33.484 17.6686 34.0774 17.5176 35.9978 17.5176C37.9482 17.5176 39.2375 17.6086 40.7378 18.3588C42.2681 19.1089 43.4533 20.1892 44.2935 21.5995C45.1337 23.0098 45.5538 24.6601 45.5538 26.5505V35.8225H47.9393V40.1884L40.7378 40.2784V35.5074C39.9876 37.1577 38.8774 38.448 37.4071 39.3782C35.9668 40.3084 34.2564 40.7735 32.276 40.7735ZM33.8637 36.7242C34.7939 36.7242 36.882 36.3026 37.7221 35.7324C38.5623 35.1623 39.2375 34.3972 39.7476 33.437C40.2577 32.4768 40.5127 31.4115 40.5127 30.2413V28.4409C40.2427 28.711 39.8076 28.966 39.2075 29.2061C38.6373 29.4161 37.9922 29.5812 37.272 29.7012C37.212 29.7012 37.152 29.7162 37.092 29.7462C37.062 29.7462 37.017 29.7462 36.957 29.7462C35.3666 30.0162 32.6438 30.5113 31.9237 31.1415C31.2035 31.7416 30.8435 32.5968 30.8435 33.707C30.8435 34.6672 31.0835 35.4024 31.5636 35.9125C32.0437 36.3926 33.0536 36.7242 33.8637 36.7242Z"
        fill="#83756B" />
    <path
        d="M232.453 40.6547V18.3828H247.407V21.0554H238.371V28.2461H244.385V30.7596H238.371V37.9503H248.489V40.6547H232.453Z"
        fill="#83756B" />
    <circle cx="93.1069" cy="29.5176" r="29" fill="#F0E3DA" />
    <circle cx="93.1069" cy="29.5176" r="15.5" stroke="#83756B" stroke-width="3" />
</svg>
