<svg width="393" height="852" viewBox="0 0 393 852" fill="none" xmlns="http://www.w3.org/2000/svg">
    <path d="M0 -14H394V852H0V-14Z" fill="url(#paint0_linear_168_524)"/>
    <g style="mix-blend-mode:multiply">
        <path d="M0.703056 -14H393.536C393.536 -14 552.08 341.948 393.536 486.518C264.591 408.739 96.1623 405.176 0.703064 486.518C-187.629 566.002 0.703056 -14 0.703056 -14Z" fill="url(#paint1_linear_168_524)"/>
    </g>
    <path d="M276.935 363.198C269.791 361.907 260.553 353.727 280.75 331.344C282.028 329.856 284.803 324.456 285.676 314.757C286.532 321.028 289.051 333.809 292.279 334.768" stroke="#91A1AC" stroke-width="2"/>
    <path d="M289.437 366.991C284.463 356.266 287.932 333.884 341.607 330.154C343.956 330.092 348.639 329.622 350.27 328.265C350.408 328.11 350.544 327.957 350.679 327.805C350.581 327.969 350.443 328.122 350.27 328.265C338.166 341.889 313.42 368.467 308.057 369.368C302.633 370.279 293.384 368.163 289.437 366.991Z" fill="#91A1AC"/>
    <path opacity="0.38" d="M292.424 400.335C287.48 389.638 303.056 360.84 341.324 382.138C344.713 384.137 350.707 387.518 353.066 387.448C353.358 387.323 353.651 387.192 353.945 387.055C353.79 387.314 353.486 387.436 353.066 387.448C341.183 392.539 330.776 388.231 310.956 402.693C304.477 407.419 296.351 401.501 292.424 400.335Z" fill="#91A1AC"/>
    <path d="M325.121 368.199C331.881 367.773 345.983 364.172 348.311 353.18" stroke="#91A1AC" stroke-width="2"/>
    <path d="M116.377 498C78.2994 511.448 51.76 505.845 39.5 501.362V506.965C47 514 90 511.5 118 502.5L116.377 498Z" fill="#677279"/>
    <path d="M39.5 501.001C39.5 494.001 91.5 484.797 97.228 484.134C120 481.5 154.046 485.2 116.096 497.985C78.1447 510.771 39.5 509.501 39.5 501.001Z" fill="#B1C1CC"/>
    <path d="M91.2727 494L88 345L89.6364 345.542L94 494H91.2727Z" fill="#9CB0BD"/>
    <path d="M60 342.427L71.792 292.661C88.5152 283.573 101.272 287.432 105.56 290.497L127 333.231C102.987 350.541 72.328 346.574 60 342.427Z" fill="#91A1AC"/>
    <path d="M60 342.459L71.792 293.144C83.048 296.896 94.84 296.36 105.56 291L127 333.347C102.987 350.5 72.328 346.569 60 342.459Z" fill="#B1C1CC"/>
    <path d="M325.376 448.337L320.504 545.768L302.642 550.639L272.33 542.52L264.752 453.75L293.981 442.924L325.376 448.337Z" fill="#707F8A"/>
    <path d="M325.376 448.336L302.642 464.033V550.639L320.504 545.767L325.376 448.336Z" fill="#83949F"/>
    <path d="M302.89 464.284V550.89L272.578 542.771L265 454L302.89 464.284Z" fill="#B1C1CC"/>
    <path d="M196.187 497L107.5 465.5V448.5C107.5 427.5 110 419.5 132 408.5C147 401 134.044 380 142.5 368.501C155 351.501 201 344.048 248.5 359.501C287.867 370.463 273.597 437.048 267.561 465.215L267.5 465.5C239.162 477.534 196.187 497 196.187 497Z" fill="#C5B8B0"/>
    <path d="M100 608C93.7566 604.594 106.303 592.125 112.477 589L131 592.309C118.651 598.742 105.5 611 100 608Z" fill="#222F38"/>
    <path d="M134.531 616C128.269 612.628 142.835 599.125 149.009 596L167.532 599.309C155.184 605.742 141.032 619.5 134.531 616Z" fill="#222F38"/>
    <path d="M197.167 594.045L196 496.704L203 494L201.25 594.045C200.317 595.775 198.139 594.766 197.167 594.045Z" fill="#857971"/>
    <path d="M163.249 318.539C175.667 322.068 195.889 323.443 201 320.05C198.723 308.751 195.268 295.722 198.481 286.832C194.809 286.832 190.709 283.089 192.515 277.474L166.24 275.135C162.271 288.223 160.678 302.069 163.249 318.539Z" fill="#0B0F13"/>
    <path d="M212.833 539.224L212 460.195L217 458L215.75 539.224C215.083 540.629 213.528 539.81 212.833 539.224Z" fill="#868584"/>
    <path d="M181 544.215L180 464.222L186 462L184.5 544.215C183.7 545.637 181.833 544.807 181 544.215Z" fill="#8C8A89"/>
    <path d="M118 472.269L150.315 448.73L227 459L188.14 482.538L188.14 593.5C170.64 606 141.955 597 141.955 590.5C129.14 598 99.6396 593.5 99.6396 583C114.14 553 118 472.269 118 472.269Z" fill="#4D5A63"/>
    <path d="M185.106 253.899C152.258 277.717 173.175 316.45 194.119 315.95L193.619 332.463C199.227 338.869 204.634 335.132 206.637 332.463V316.45C215.476 316.45 224.819 308.96 235 306.625C222.983 244.575 198.959 248.228 185.106 253.899Z" fill="#F8E6DB"/>
    <path d="M154.078 492.206C152.943 482.395 164.491 469 164.491 469L176 472.692C176 472.692 175.861 490.857 166.683 497.481C164.491 499.063 154.627 496.953 154.078 492.206Z" fill="#F8E6DB"/>
    <path d="M194 239.088C153.693 236.297 153.23 300.488 163.885 307L169.909 305.14C171.739 301.047 171.762 292.43 171.762 280.486C171.762 266.052 180.565 255.834 192.148 249.787C185.066 244.144 189.738 241.44 194 239.088Z" fill="#2C3135"/>
    <path d="M186.043 248.058C178.861 242.415 186.03 236.018 190.748 235.439C232.01 230.38 249.069 269.653 241.089 320.541C228.622 324.068 208.32 325.442 203.189 322.052C205.475 310.759 210.561 296.227 207.335 287.342C211.021 287.342 215.137 283.602 213.325 277.99C213.034 276.653 210.368 275.037 207.335 275.652C189.366 279.3 181.994 256.481 186.043 248.058Z" fill="#2C3135"/>
    <path d="M115 468.032L126.455 455L139 460.43L129.727 472.918L128 482.5C123.2 489.885 118.455 487.077 115 484L115 468.032Z" fill="#F8E6DB"/>
    <path d="M193.719 332.339C199.783 339.281 204.156 334.535 206.656 332.374V328.535C206.656 328.535 212.145 329.761 220 331.5C227.5 333.16 235.904 335.311 238 341.499C248.511 372.538 264.261 429.999 264.261 429.999L255.5 450L221.092 454.949L177.924 479.898L155.382 471.186L173.5 453.5L145.561 464.136L138.5 472L107 453.5L145.561 415.5C145.561 415.5 162.5 357.071 168.5 342.5C172.618 332.5 193.719 328.5 193.719 328.5V332.339Z" fill="#91A1AC"/>
    <path d="M259.167 560.045L258 462.704L265 460L263.25 560.045C262.317 561.775 260.139 560.766 259.167 560.045Z" fill="#857971"/>
    <path d="M267.5 466.5C235.5 488.072 195.937 497 195.937 497C195.937 473.5 192.5 441.03 247.5 441.03C258.5 438.333 244.811 395.787 253 383.5C256 378.999 259.5 376 267.5 374C273.093 382.5 277.369 406.5 275.5 434C274.582 447.5 271.5 463.803 267.5 466.5Z" fill="#A9968B"/>
    <defs>
        <linearGradient id="paint0_linear_168_524" x1="197" y1="-14" x2="197" y2="852" gradientUnits="userSpaceOnUse">
            <stop stop-color="#91A1AC"/>
            <stop offset="1" stop-color="#91A1AC"/>
        </linearGradient>
        <linearGradient id="paint1_linear_168_524" x1="197.119" y1="-14" x2="197.119" y2="593.984" gradientUnits="userSpaceOnUse">
            <stop stop-color="#91A1AC"/>
            <stop offset="1" stop-color="#91A1AC"/>
        </linearGradient>
    </defs>
</svg>
