<svg width="27" height="29" viewBox="0 0 27 29" fill="none" xmlns="http://www.w3.org/2000/svg">
    <g opacity="0.7">
        <path d="M0.723633 25.1063V3.21289C0.723633 1.55604 2.06678 0.212891 3.72363 0.212891H6.53109C8.20225 0.212891 9.55124 1.57844 9.53086 3.24947L9.26387 25.1429C9.24384 26.7854 7.90668 28.1063 6.2641 28.1063H3.72363C2.06678 28.1063 0.723633 26.7632 0.723633 25.1063Z" fill="black"/>
        <path d="M26.7462 3.21289V25.1063C26.7462 26.7632 25.403 28.1063 23.7462 28.1063H21.072C19.4151 28.1063 18.072 26.7632 18.072 25.1063V3.21289C18.072 1.55604 19.4151 0.212891 21.072 0.212891H23.7462C25.403 0.212891 26.7462 1.55604 26.7462 3.21289Z" fill="black"/>
    </g>
</svg>
