<svg width="23" height="30" viewBox="0 0 23 30" fill="none" xmlns="http://www.w3.org/2000/svg">
    <path d="M1 10.9994L1 26.9999C1 28.1045 1.89551 28.9999 3.00013 28.9999L19.5001 28.9988C20.6046 28.9987 21.5 28.1033 21.5 26.9988V14.3101V10.9981M1 10.9994L21.5 10.9981M1 10.9994L1 5.84388C1 4.73931 1.89543 3.84388 3 3.84388H6.44678M21.5 10.9981V5.84437C21.5 4.73961 20.6043 3.8441 19.4995 3.84437L16.2012 3.84518M6.44678 3.84388V1M6.44678 3.84388V6.72615M6.44678 3.84388L16.2012 3.84518M16.2012 3.84518V1.00401M16.2012 3.84518V6.72746" stroke="black" stroke-width="1.5" stroke-linecap="round"/>
    <path d="M1 10.9994L1 26.9999C1 28.1045 1.89551 28.9999 3.00013 28.9999L19.5001 28.9988C20.6046 28.9987 21.5 28.1033 21.5 26.9988V14.3101V10.9981M1 10.9994L21.5 10.9981M1 10.9994L1 5.84388C1 4.73931 1.89543 3.84388 3 3.84388H6.44678M21.5 10.9981V5.84437C21.5 4.73961 20.6043 3.8441 19.4995 3.84437L16.2012 3.84518M6.44678 3.84388V1M6.44678 3.84388V6.72615M6.44678 3.84388L16.2012 3.84518M16.2012 3.84518V1.00401M16.2012 3.84518V6.72746" stroke="url(#paint0_linear_533_1569)" stroke-width="1.5" stroke-linecap="round"/>
    <defs>
        <linearGradient id="paint0_linear_533_1569" x1="9.50035" y1="0.0689072" x2="9.50035" y2="34.4177" gradientUnits="userSpaceOnUse">
            <stop stop-color="#FF9C56"/>
            <stop offset="1" stop-color="#C93030"/>
        </linearGradient>
    </defs>
</svg>
