<svg width="120" height="125" viewBox="0 0 120 125" fill="none" xmlns="http://www.w3.org/2000/svg">
    <path d="M125.286 4.45711C124.959 1.44256 122.046 -0.589708 119.104 0.144584L17.4689 25.5121C13.9752 26.3841 13.4057 31.1093 16.5922 32.7864C16.8625 32.9286 17.1485 33.0388 17.4443 33.1147L124.572 60.5905C127.954 61.4579 131.161 58.6798 130.785 55.2086L125.286 4.45711Z" fill="#CEE8E9"/>
    <path d="M123.309 74.7109C122.845 72.2876 120.682 70.565 118.217 70.6544L3.50696 74.815C0.717939 74.9162 -1.44835 77.281 -1.30523 80.0682L1.00195 124.999L121.542 111.981C124.08 111.707 126.005 109.564 126.005 107.01L126.005 89.2665C126.005 88.951 125.975 88.6362 125.915 88.3263L123.309 74.7109Z" fill="#C2D4D4"/>
    <path d="M83.1114 43.9028C82.3469 43.3132 81.428 42.9576 80.4657 42.8789L-17.0443 34.9047C-19.786 34.6804 -22.1939 36.7131 -22.4329 39.4536L-25.3294 72.6629C-25.5552 75.2527 -23.7589 77.5835 -21.197 78.0248L128.409 103.795C130.78 104.203 133.106 102.864 133.944 100.608L137.717 90.4513C138.479 88.3984 137.817 86.0882 136.083 84.7509L83.1114 43.9028Z" fill="#CEE8E9"/>
    <path d="M125.462 38.9239C125.227 36.7609 123.621 34.9977 121.489 34.5632L1.70371 10.1502C-1.61408 9.47398 -4.63047 12.2218 -4.26571 15.5881L-1.56668 40.4966C7.37755 44.2031 97.2701 75.4471 124.333 84.8394C127.858 86.0629 131.398 83.121 130.89 79.4242L126.004 43.9254L125.462 38.9239Z" fill="#C2D4D4"/>
</svg>
