<svg width="24" height="27" viewBox="0 0 24 27" fill="none" xmlns="http://www.w3.org/2000/svg">
    <path d="M1 18.6855V8.83131C1 8.33186 1.24859 7.86517 1.66308 7.5865L11.1631 1.1994C11.6692 0.859155 12.3308 0.859155 12.8369 1.1994L22.3369 7.5865C22.7514 7.86517 23 8.33186 23 8.83131V18.6855C23 19.2134 22.7226 19.7023 22.2695 19.9731L12.7695 25.6505C12.2956 25.9338 11.7044 25.9338 11.2305 25.6505L1.73051 19.9731C1.27742 19.7023 1 19.2134 1 18.6855Z" stroke="black" stroke-width="1.5"/>
    <path d="M17.0399 13.3754C17.0399 16.1586 14.7836 18.4149 12.0004 18.4149C9.21719 18.4149 6.96094 16.1586 6.96094 13.3754C6.96094 10.5922 9.21719 8.33594 12.0004 8.33594C14.7836 8.33594 17.0399 10.5922 17.0399 13.3754Z" stroke="black" stroke-width="1.5"/>
</svg>
