<svg width="120" height="145" viewBox="0 0 120 145" fill="none" xmlns="http://www.w3.org/2000/svg">
    <path d="M0 14.5C10.5 0 32.7396 -1.47061 58.5 10.7335C96 28.4994 120 0 120 0V28.4994C120 28.4994 91 54.689 58.5 35C26 15.311 0 40.5 0 40.5V14.5Z" fill="#E1E4F5"/>
    <path d="M0 84.2794C0 84.2794 33.5 63.6854 58.5 88.2653C80.2521 109.652 120 69 120 69V120.153C116 138 85.5 158.237 58.5 131C31.5 103.763 0 138 0 138V84.2794Z" fill="#CBCEE8"/>
    <path d="M0 39.5003C11.0478 19.4084 33.5 16.0003 58.5 34.5003C80.2521 50.5968 114 38.0003 120 23.0003V61.5003C120 61.5003 88.5 89.5003 58.5 68.0003C28.5 46.5003 0 73.5003 0 73.5003V39.5003Z" fill="#CBCEE8"/>
    <path d="M0 74.5008C8.5 51.0009 33.5 47.0008 58.5 65.5008C80.2521 81.5974 115 73.5008 120 56.0008V91.5008C110.5 114.501 85.5 121.501 58.5 101.001C31.5 80.5008 8.5 91.5008 0 106.501V74.5008Z" fill="#E1E4F5"/>
</svg>
