<svg width="31" height="17" viewBox="0 0 31 17" fill="none" xmlns="http://www.w3.org/2000/svg">
    <path d="M2.10742 0.999051C6.10742 13.5889 23.1074 13.5888 28.6074 0.999173" stroke="black" stroke-width="1.5" stroke-linecap="round"/>
    <path d="M0.577092 8.46967C0.284199 8.76256 0.284199 9.23744 0.577092 9.53033C0.869985 9.82322 1.34486 9.82322 1.63775 9.53033L0.577092 8.46967ZM4.07709 4.96967L0.577092 8.46967L1.63775 9.53033L5.13775 6.03033L4.07709 4.96967Z" fill="black"/>
    <path d="M30.1378 8.46967C30.4306 8.76256 30.4306 9.23744 30.1378 9.53033C29.8449 9.82322 29.37 9.82322 29.0771 9.53033L30.1378 8.46967ZM26.6378 4.96967L30.1378 8.46967L29.0771 9.53033L25.5771 6.03033L26.6378 4.96967Z" fill="black"/>
    <path d="M6.92206 13.1954C6.75384 13.5739 6.9243 14.0171 7.30282 14.1854C7.68133 14.3536 8.12455 14.1831 8.29278 13.8046L6.92206 13.1954ZM8.92206 8.6954L6.92206 13.1954L8.29278 13.8046L10.2928 9.3046L8.92206 8.6954Z" fill="black"/>
    <path d="M23.7928 13.1954C23.961 13.5739 23.7905 14.0171 23.412 14.1854C23.0335 14.3536 22.5903 14.1831 22.4221 13.8046L23.7928 13.1954ZM21.7928 8.6954L23.7928 13.1954L22.4221 13.8046L20.4221 9.3046L21.7928 8.6954Z" fill="black"/>
    <path d="M15.8574 15.5C15.8574 15.9142 15.5216 16.25 15.1074 16.25C14.6932 16.25 14.3574 15.9142 14.3574 15.5H15.8574ZM15.8574 10V15.5H14.3574V10H15.8574Z" fill="black"/>
</svg>
